<svg width="32" height="32" viewBox="0 0 32 32" fill="none" xmlns="http://www.w3.org/2000/svg">
<path fill-rule="evenodd" clip-rule="evenodd" d="M19.6093 12.3907C19.088 11.8693 18.2453 11.8693 17.724 12.3907L16 14.1147L14.276 12.3907C13.7547 11.8693 12.912 11.8693 12.3907 12.3907C11.8693 12.912 11.8693 13.7547 12.3907 14.276L14.1147 16L12.3907 17.724C11.8693 18.2453 11.8693 19.088 12.3907 19.6093C12.6507 19.8693 12.992 20 13.3333 20C13.6747 20 14.016 19.8693 14.276 19.6093L16 17.8853L17.724 19.6093C17.984 19.8693 18.3253 20 18.6667 20C19.008 20 19.3493 19.8693 19.6093 19.6093C20.1307 19.088 20.1307 18.2453 19.6093 17.724L17.8853 16L19.6093 14.276C20.1307 13.7547 20.1307 12.912 19.6093 12.3907ZM16 26.6667C10.1187 26.6667 5.33332 21.8813 5.33332 16C5.33332 10.1187 10.1187 5.33332 16 5.33332C21.8813 5.33332 26.6667 10.1187 26.6667 16C26.6667 21.8813 21.8813 26.6667 16 26.6667ZM16 2.66666C8.64799 2.66666 2.66666 8.64799 2.66666 16C2.66666 23.352 8.64799 29.3333 16 29.3333C23.352 29.3333 29.3333 23.352 29.3333 16C29.3333 8.64799 23.352 2.66666 16 2.66666Z" fill="white"/>
<mask id="mask0_341_1303" style="mask-type:luminance" maskUnits="userSpaceOnUse" x="2" y="2" width="28" height="28">
<path fill-rule="evenodd" clip-rule="evenodd" d="M19.6093 12.3907C19.088 11.8693 18.2453 11.8693 17.724 12.3907L16 14.1147L14.276 12.3907C13.7547 11.8693 12.912 11.8693 12.3907 12.3907C11.8693 12.912 11.8693 13.7547 12.3907 14.276L14.1147 16L12.3907 17.724C11.8693 18.2453 11.8693 19.088 12.3907 19.6093C12.6507 19.8693 12.992 20 13.3333 20C13.6747 20 14.016 19.8693 14.276 19.6093L16 17.8853L17.724 19.6093C17.984 19.8693 18.3253 20 18.6667 20C19.008 20 19.3493 19.8693 19.6093 19.6093C20.1307 19.088 20.1307 18.2453 19.6093 17.724L17.8853 16L19.6093 14.276C20.1307 13.7547 20.1307 12.912 19.6093 12.3907ZM16 26.6667C10.1187 26.6667 5.33332 21.8813 5.33332 16C5.33332 10.1187 10.1187 5.33332 16 5.33332C21.8813 5.33332 26.6667 10.1187 26.6667 16C26.6667 21.8813 21.8813 26.6667 16 26.6667ZM16 2.66666C8.64799 2.66666 2.66666 8.64799 2.66666 16C2.66666 23.352 8.64799 29.3333 16 29.3333C23.352 29.3333 29.3333 23.352 29.3333 16C29.3333 8.64799 23.352 2.66666 16 2.66666Z" fill="white"/>
</mask>
<g mask="url(#mask0_341_1303)">
</g>
</svg>
